<svg xmlns="http://www.w3.org/2000/svg" width="970" height="66" viewBox="0 0 970 66">
  <!-- Site-native background + border -->
  <rect width="970" height="66" fill="#f7f7f5"/>
  <line x1="0" y1="0" x2="970" y2="0" stroke="#e2e2de" stroke-width="1"/>
  <line x1="0" y1="65" x2="970" y2="65" stroke="#e2e2de" stroke-width="1"/>

  <!-- 3Ball mark (ballmark paths scaled to 44x44, positioned left) -->
  <g transform="translate(20, 11) scale(0.04296875)">
    <circle fill="#fff" cx="680.092" cy="529.92" r="301.149"/>
    <path fill="#ec2127" d="M512.276,21.895C241.855,21.895,22.621,241.108,22.621,511.529s219.214,489.634,489.655,489.634,489.655-219.193,489.655-489.634c0-270.42-219.214-489.634-489.655-489.634ZM703.601,811.418c-147.132,0-266.376-119.265-266.376-266.376s119.265-266.376,266.376-266.376,266.376,119.265,266.376,266.646-119.265,266.376-266.376,266.376Z"/>
    <path fill="#1a1a18" d="M766.477,428.452h-95.146c-6.088,0-10.974.169-14.682.506s-6.403.843-8.089,1.517c-4.044,1.011-6.088,5.245-6.088,12.659,0,1.348.084,3.223.253,5.582s.421,4.887.758,7.583.59,5.392.758,8.089.253,4.887.253,6.572c0,21.591-8.426,32.397-25.298,32.397-16.535,0-24.792-9.268-24.792-27.826v-7.836c0-3.202.169-6.656.506-10.385.337-3.37.59-6.656.758-9.858s.253-5.645.253-7.351v-12.154c0-3.37-.169-6.403-.506-9.1,0-2.359-.084-4.718-.253-7.078s-.253-4.718-.253-7.078c0-6.066.421-10.785,1.264-14.155s2.528-5.982,5.055-7.857c2.528-1.854,6.235-3.033,11.143-3.539,4.887-.506,11.543-.758,19.99-.758h127.016c3.033,0,6.74-.169,11.122-.506,2.022,0,4.129-.063,6.319-.253,2.191-.169,4.634-.253,7.351-.253,3.707-.337,8.089-.506,13.165-.506h14.682c24.624,0,36.925,8.089,36.925,24.287,0,8.784-4.887,18.052-14.661,27.826l-76.926,73.872c28.668,1.011,51.775,10.469,69.343,28.331,19.231,19.231,28.837,43.392,28.837,72.397,0,36.083-13.649,65.952-40.991,89.564v-.527c-12.828,11.838-27.762,20.516-44.782,26.077-17.041,5.582-35.998,8.341-56.936,8.341-38.126,0-69.996-9.268-95.652-27.826-26.646-19.569-39.98-43.518-39.98-71.828,0-8.426,1.348-16.451,4.044-24.055s6.488-14.092,11.396-19.484c4.887-5.392,10.616-9.711,17.209-12.891s13.734-4.824,21.506-4.824c10.785,0,19.653,3.202,26.562,9.626,6.909,6.446,10.385,14.682,10.385,24.813,0,19.569-11.48,29.848-34.419,30.859,1.348,11.817,8.931,22.412,22.77,31.891,7.752,5.392,16.704,9.542,26.815,12.386,10.111,2.886,20.58,4.318,31.364,4.318,11.817,0,22.939-1.769,33.387-5.308s19.569-8.678,27.32-15.419c7.077-7.077,12.66-15.271,16.704-24.561,4.044-9.247,6.066-19.295,6.066-30.079,0-37.452-21.254-56.199-63.761-56.199-10.806,0-23.444,1.348-37.957,4.044-1.706.358-3.202.59-4.55.758s-3.033.253-5.055.253c-13.165,0-19.737-6.403-19.737-19.21,0-5.729,3.37-11.838,10.111-18.22l89.122-87.627Z"/>
  </g>

  <!-- Brand name -->
  <text x="74" y="28" font-family="-apple-system,BlinkMacSystemFont,'Segoe UI',Helvetica,Arial,sans-serif" font-size="11" font-weight="600" fill="#6b6b65" letter-spacing="0.12em" text-transform="uppercase">3BALL RACKS</text>

  <!-- Headline -->
  <text x="74" y="47" font-family="-apple-system,BlinkMacSystemFont,'Segoe UI',Helvetica,Arial,sans-serif" font-size="14" font-weight="400" fill="#1a1a18">Handcrafted solid wood billiard racks — built one at a time.</text>

  <!-- CTA -->
  <text x="830" y="37" font-family="-apple-system,BlinkMacSystemFont,'Segoe UI',Helvetica,Arial,sans-serif" font-size="13" font-weight="600" fill="#3a5a40">Shop now →</text>

  <!-- Sponsored label -->
  <text x="950" y="60" font-family="-apple-system,BlinkMacSystemFont,'Segoe UI',Helvetica,Arial,sans-serif" font-size="9" fill="#b0b0a8" text-anchor="end">sponsored</text>
</svg>
